
        <svg xmlns="http://www.w3.org/2000/svg" xmlns:xlink="http://www.w3.org/1999/xlink" version="1.1" width="3163.8269452214217" 
        height="450.19261916064386" viewBox="0 0 3163.8269452214217 450.19261916064386">
			<rect fill="#000000" width="3163.8269452214217" height="450.19261916064386"/>
			<g transform="scale(8.191347261071085) translate(10, 10)">
				<defs id="SvgjsDefs1063"><linearGradient id="SvgjsLinearGradient1070"><stop id="SvgjsStop1071" stop-color="#8f5e25" offset="0"></stop><stop id="SvgjsStop1072" stop-color="#fbf4a1" offset="0.5"></stop><stop id="SvgjsStop1073" stop-color="#8f5e25" offset="1"></stop></linearGradient><linearGradient id="SvgjsLinearGradient1074"><stop id="SvgjsStop1075" stop-color="#8f5e25" offset="0"></stop><stop id="SvgjsStop1076" stop-color="#fbf4a1" offset="0.5"></stop><stop id="SvgjsStop1077" stop-color="#8f5e25" offset="1"></stop></linearGradient><linearGradient id="SvgjsLinearGradient1078"><stop id="SvgjsStop1079" stop-color="#8f5e25" offset="0"></stop><stop id="SvgjsStop1080" stop-color="#fbf4a1" offset="0.5"></stop><stop id="SvgjsStop1081" stop-color="#8f5e25" offset="1"></stop></linearGradient></defs><g id="SvgjsG1064" featureKey="nameLeftFeature-0" transform="matrix(0.6711113018307788,0,0,0.6711113018307788,-2.281778170216003,-7.825155116856975)" fill="url(#SvgjsLinearGradient1070)"><path d="M24 12 c0.36 0 0.6 0.24 0.6 0.6 l0 26.8 c0 0.36 -0.24 0.6 -0.6 0.6 l-1.92 0 c-0.36 0 -0.6 -0.24 -0.6 -0.6 l0 -12.28 l-14.96 0 l0 12.28 c0 0.36 -0.24 0.6 -0.6 0.6 l-1.92 0 c-0.36 0 -0.6 -0.24 -0.6 -0.6 l0 -26.8 c0 -0.36 0.24 -0.6 0.6 -0.6 l1.92 0 c0.36 0 0.6 0.24 0.6 0.6 l0 11.64 l14.96 0 l0 -11.64 c0 -0.36 0.24 -0.6 0.6 -0.6 l1.92 0 z M63.083 39.32 c0.16 0.4 -0.04 0.68 -0.48 0.68 l-1.92 0 c-0.32 0 -0.54 -0.12 -0.68 -0.48 l-2.14 -5.72 l-13.48 0 l-2.14 5.72 c-0.14 0.36 -0.36 0.48 -0.68 0.48 l-1.92 0 c-0.44 0 -0.64 -0.28 -0.48 -0.68 l10.24 -26.84 c0.12 -0.32 0.4 -0.48 0.72 -0.48 l2 0 c0.32 0 0.6 0.16 0.72 0.48 z M45.423 31 l11.4 0 l-5.7 -15.2 z M84.52600000000001 12 c9.72 0 14.64 6.08 14.64 14 s-4.92 14 -14.64 14 l-6.28 0 c-0.36 0 -0.6 -0.24 -0.6 -0.6 l0 -26.8 c0 -0.36 0.24 -0.6 0.6 -0.6 l6.28 0 z M84.52600000000001 37.12 c7.68 0 11.48 -4.24 11.48 -11.12 s-3.8 -11.12 -11.48 -11.12 l-3.76 0 l0 22.24 l3.76 0 z M136.149 39.32 c0.16 0.4 -0.04 0.68 -0.48 0.68 l-1.92 0 c-0.32 0 -0.54 -0.12 -0.68 -0.48 l-2.14 -5.72 l-13.48 0 l-2.14 5.72 c-0.14 0.36 -0.36 0.48 -0.68 0.48 l-1.92 0 c-0.44 0 -0.64 -0.28 -0.48 -0.68 l10.24 -26.84 c0.12 -0.32 0.4 -0.48 0.72 -0.48 l2 0 c0.32 0 0.6 0.16 0.72 0.48 z M118.489 31 l11.4 0 l-5.7 -15.2 z M159.472 24.240000000000002 c5.48 1.16 10.34 2.72 10.34 8.6 c0 4.52 -3.14 7.76 -10.22 7.76 c-5.96 0 -9.68 -2.24 -10.08 -6.6 c-0.04 -0.4 0.2 -0.74 0.56 -0.74 l1.9 0 c0.36 0 0.56 0.3 0.6 0.62 c0.3 2.36 2.86 3.88 7.02 3.88 c4.6 0 7.14 -1.6 7.14 -4.92 c0 -3.92 -2.9 -4.64 -7.26 -5.68 c-5.1 -1.22 -9.28 -2.88 -9.28 -8.24 c0 -4.38 3.04 -7.26 9.12 -7.26 c5.68 0 9.2 2.18 9.64 6.5 c0.04 0.4 -0.2 0.58 -0.56 0.58 l-1.76 0 c-0.36 0 -0.56 -0.14 -0.6 -0.46 c-0.28 -2.24 -2.72 -3.82 -6.72 -3.82 c-3.68 0 -6.12 1.48 -6.12 4.46 c0 3.06 2.26 4.46 6.28 5.32 z M193.775 24.240000000000002 c5.48 1.16 10.34 2.72 10.34 8.6 c0 4.52 -3.14 7.76 -10.22 7.76 c-5.96 0 -9.68 -2.24 -10.08 -6.6 c-0.04 -0.4 0.2 -0.74 0.56 -0.74 l1.9 0 c0.36 0 0.56 0.3 0.6 0.62 c0.3 2.36 2.86 3.88 7.02 3.88 c4.6 0 7.14 -1.6 7.14 -4.92 c0 -3.92 -2.9 -4.64 -7.26 -5.68 c-5.1 -1.22 -9.28 -2.88 -9.28 -8.24 c0 -4.38 3.04 -7.26 9.12 -7.26 c5.68 0 9.2 2.18 9.64 6.5 c0.04 0.4 -0.2 0.58 -0.56 0.58 l-1.76 0 c-0.36 0 -0.56 -0.14 -0.6 -0.46 c-0.28 -2.24 -2.72 -3.82 -6.72 -3.82 c-3.68 0 -6.12 1.48 -6.12 4.46 c0 3.06 2.26 4.46 6.28 5.32 z M241.398 39.32 c0.16 0.4 -0.04 0.68 -0.48 0.68 l-1.92 0 c-0.32 0 -0.54 -0.12 -0.68 -0.48 l-2.14 -5.72 l-13.48 0 l-2.14 5.72 c-0.14 0.36 -0.36 0.48 -0.68 0.48 l-1.92 0 c-0.44 0 -0.64 -0.28 -0.48 -0.68 l10.24 -26.84 c0.12 -0.32 0.4 -0.48 0.72 -0.48 l2 0 c0.32 0 0.6 0.16 0.72 0.48 z M223.738 31 l11.4 0 l-5.7 -15.2 z"></path></g><g id="SvgjsG1065" featureKey="inlineSymbolFeature-0" transform="matrix(0.3743567950682946,0,0,0.3743567950682946,166.90471529636733,-1.1527951414359914)" fill="url(#SvgjsLinearGradient1074)"><g xmlns="http://www.w3.org/2000/svg"><path d="M58.312,71.264l0.479,2.031c5.016,14.093-1.434,19.706-1.434,19.706l-10.392,3.464l-3.821-10.749l8.598-3.583l1.912,10.032   c3.219-1.556,4.604-4.919,4.797-8.316c0.096-1.7-0.106-3.418-0.508-5.069c-0.161-0.664-2.015-5.132-1.781-5.365l-1.074,1.074   c-7.406,1.792-15.526-3.939-15.526-3.939c-8.752-8.454-3.459-20.894,3.355-28.627c0.359-0.408,4.982-4.857,4.765-5.293   c-0.119-0.239-0.119-0.358-0.119-0.358c-1.108-5.542-1.398-11.275-0.726-16.892c0.616-5.147,1.597-11.812,6.035-15.207   c3.048-2.332,5.624-0.653,7.087,2.39c0.352,0.732,0.758,1.573,0.98,2.358c3.582,12.66-3.703,20.184-3.703,20.184l-6.928,8.361   l4.062,17.079l7.045-2.27L65,64.457L58.312,71.264z M55,5.118c-0.422,0.118-0.879,0.329-1.373,0.646   c-2.085,1.341-3.647,4.339-4.462,6.602c-1.406,3.901-1.534,8.097-1.152,12.187c0.211,2.266,0.385,4.709,0.864,6.94l0.718,2.866   c0,0,2.148-2.389,2.149-2.389c4.445-4.63,8.006-10.505,7.996-17.103C59.735,12.417,59.471,3.871,55,5.118z M54.371,72.459   l1.193-1.074c-1.193-4.182-2.389-9.555-3.582-14.691l-4.778,1.553l2.868,10.151l-2.509-0.119l-2.389-10.629l6.451-2.149   L48.28,39.973c-5.681,6.999-11.716,16.205-7.686,25.472c1.978,4.547,5.963,6.345,10.638,6.97   C51.838,72.496,53.809,72.966,54.371,72.459z M54.729,55.857l3.105,13.496l5.973-5.136l-2.748-10.39L54.729,55.857z"></path></g></g><g id="SvgjsG1066" featureKey="nameRightFeature-0" transform="matrix(0.6711113018307788,0,0,0.6711113018307788,191.8042030036397,-7.825155116856975)" fill="url(#SvgjsLinearGradient1078)"><path d="M35.483000000000004 12 c9.72 0 14.64 6.08 14.64 14 s-4.92 14 -14.64 14 l-6.28 0 c-0.36 0 -0.6 -0.24 -0.6 -0.6 l0 -26.8 c0 -0.36 0.24 -0.6 0.6 -0.6 l6.28 0 z M35.483000000000004 37.12 c7.68 0 11.48 -4.24 11.48 -11.12 s-3.8 -11.12 -11.48 -11.12 l-3.76 0 l0 22.24 l3.76 0 z M87.10600000000001 39.32 c0.16 0.4 -0.04 0.68 -0.48 0.68 l-1.92 0 c-0.32 0 -0.54 -0.12 -0.68 -0.48 l-2.14 -5.72 l-13.48 0 l-2.14 5.72 c-0.14 0.36 -0.36 0.48 -0.68 0.48 l-1.92 0 c-0.44 0 -0.64 -0.28 -0.48 -0.68 l10.24 -26.84 c0.12 -0.32 0.4 -0.48 0.72 -0.48 l2 0 c0.32 0 0.6 0.16 0.72 0.48 z M69.446 31 l11.4 0 l-5.7 -15.2 z M121.709 12 c0.36 0 0.6 0.24 0.6 0.6 l0 26.8 c0 0.32 -0.18 0.54 -0.48 0.6 l-2.68 0 c-0.32 0 -0.56 -0.12 -0.72 -0.4 l-13.64 -23.12 l0 22.92 c0 0.36 -0.24 0.6 -0.6 0.6 l-1.92 0 c-0.36 0 -0.6 -0.24 -0.6 -0.6 l0 -26.8 c0 -0.32 0.18 -0.54 0.48 -0.6 l2.68 0 c0.32 0 0.56 0.12 0.72 0.4 l13.64 23.12 l0 -22.92 c0 -0.36 0.24 -0.6 0.6 -0.6 l1.92 0 z M157.412 14.879999999999999 l-7.74 0 l0 22.24 l7.74 0 c0.36 0 0.6 0.24 0.6 0.6 l0 1.68 c0 0.36 -0.24 0.6 -0.6 0.6 l-18.6 0 c-0.36 0 -0.6 -0.24 -0.6 -0.6 l0 -1.68 c0 -0.36 0.24 -0.6 0.6 -0.6 l7.74 0 l0 -22.24 l-7.74 0 c-0.36 0 -0.6 -0.24 -0.6 -0.6 l0 -1.68 c0 -0.36 0.24 -0.6 0.6 -0.6 l18.6 0 c0.36 0 0.6 0.24 0.6 0.6 l0 1.68 c0 0.36 -0.24 0.6 -0.6 0.6 z M191.51500000000001 37.12 c0.36 0 0.6 0.24 0.6 0.6 l0 1.68 c0 0.36 -0.24 0.6 -0.6 0.6 l-17 0 c-0.36 0 -0.6 -0.24 -0.6 -0.6 l0 -26.8 c0 -0.36 0.24 -0.6 0.6 -0.6 l16.96 0 c0.36 0 0.6 0.24 0.6 0.6 l0 1.68 c0 0.36 -0.24 0.6 -0.6 0.6 l-14.44 0 l0 8.96 l13.36 0 c0.36 0 0.6 0.24 0.6 0.6 l0 1.68 c0 0.36 -0.24 0.6 -0.6 0.6 l-13.36 0 l0 10.4 l14.48 0 z M225.21800000000002 37.12 c0.36 0 0.6 0.24 0.6 0.6 l0 1.68 c0 0.36 -0.24 0.6 -0.6 0.6 l-16.8 0 c-0.36 0 -0.6 -0.24 -0.6 -0.6 l0 -26.8 c0 -0.36 0.24 -0.6 0.6 -0.6 l1.92 0 c0.36 0 0.6 0.24 0.6 0.6 l0 24.52 l14.28 0 z M249.581 24.240000000000002 c5.48 1.16 10.34 2.72 10.34 8.6 c0 4.52 -3.14 7.76 -10.22 7.76 c-5.96 0 -9.68 -2.24 -10.08 -6.6 c-0.04 -0.4 0.2 -0.74 0.56 -0.74 l1.9 0 c0.36 0 0.56 0.3 0.6 0.62 c0.3 2.36 2.86 3.88 7.02 3.88 c4.6 0 7.14 -1.6 7.14 -4.92 c0 -3.92 -2.9 -4.64 -7.26 -5.68 c-5.1 -1.22 -9.28 -2.88 -9.28 -8.24 c0 -4.38 3.04 -7.26 9.12 -7.26 c5.68 0 9.2 2.18 9.64 6.5 c0.04 0.4 -0.2 0.58 -0.56 0.58 l-1.76 0 c-0.36 0 -0.56 -0.14 -0.6 -0.46 c-0.28 -2.24 -2.72 -3.82 -6.72 -3.82 c-3.68 0 -6.12 1.48 -6.12 4.46 c0 3.06 2.26 4.46 6.28 5.32 z"></path></g>
			</g>
		</svg>
	